<?xml version="1.0" encoding="utf-8"?>
<!-- Generator: Adobe Illustrator 25.2.2, SVG Export Plug-In . SVG Version: 6.00 Build 0)  -->
<svg version="1.1" id="Capa_1" xmlns="http://www.w3.org/2000/svg" xmlns:xlink="http://www.w3.org/1999/xlink" x="0px" y="0px"
	 viewBox="0 0 395.7 395.7" style="enable-background:new 0 0 395.7 395.7;" xml:space="preserve">
<style type="text/css">
	.st0{fill:#DC6419;}
	.st1{fill:#FFFFFF;}
</style>
<g>
	<path class="st0" d="M389.5,195.7c0,105.9-85.8,191.7-191.7,191.7c-35.9,0-61.4-8.4-90.1-25.6c-4.9,4.3-46.5,33.8-55.8,25.6
		c-5.3-3.9,15.1-61.4,10.2-65.8c-38-35-56-70-56-125.8C6.1,89.8,92,4,197.8,4S389.5,89.8,389.5,195.7z"/>
	<path class="st1" d="M86.3,164.8h20.3c4.1,0,7.5-3.4,7.5-7.5s-3.4-7.5-7.5-7.5H86.3c-15.3,0-27.8,12.5-27.8,27.8
		c0,15.3,12.5,27.8,27.8,27.8c7,0,12.8,5.7,12.8,12.8c0,7-5.7,12.8-12.8,12.8H66c-4.1,0-7.5,3.4-7.5,7.5s3.4,7.5,7.5,7.5h20.3
		c15.3,0,27.8-12.5,27.8-27.8c0-15.3-12.5-27.8-27.8-27.8c-7,0-12.8-5.7-12.8-12.8C73.5,170.5,79.2,164.8,86.3,164.8z"/>
	<path class="st1" d="M260.3,230.9h-33.1v-73.6c0-4.1-3.4-7.5-7.5-7.5s-7.5,3.4-7.5,7.5v81.1c0,4.1,3.4,7.5,7.5,7.5h40.6
		c4.1,0,7.5-3.4,7.5-7.5S264.4,230.9,260.3,230.9z"/>
	<path class="st1" d="M329.6,230.9h-33.1v-25.6H312c4.1,0,7.5-3.4,7.5-7.5s-3.4-7.5-7.5-7.5h-15.4v-25.6h33.1c4.1,0,7.5-3.4,7.5-7.5
		s-3.4-7.5-7.5-7.5h-40.6c-4.1,0-7.5,3.4-7.5,7.5v81.1c0,4.1,3.4,7.5,7.5,7.5h40.6c4.1,0,7.5-3.4,7.5-7.5S333.8,230.9,329.6,230.9z"
		/>
	<path class="st1" d="M159.9,150.3c-15.2,0-27.5,12.3-27.5,27.5v60.1c0,4.1,3.4,7.5,7.5,7.5s7.5-3.4,7.5-7.5v-19.5h25v19.5
		c0,4.1,3.4,7.5,7.5,7.5s7.5-3.4,7.5-7.5v-60.1C187.4,162.6,175.1,150.3,159.9,150.3z M147.4,203.3v-25.5c0-6.9,5.6-12.5,12.5-12.5
		s12.5,5.6,12.5,12.5v25.5H147.4z"/>
	<path class="st0" d="M197.8,0C89.9,0,2.1,87.8,2.1,195.7c0,48.5,17.8,94.8,50.1,130.8l-10.1,60.4c-0.4,2.3,0.3,4.6,1.9,6.3
		c1.4,1.5,3.4,2.4,5.5,2.4c0.2,0,0.5,0,0.7,0c1.5-0.1,34.7-3.5,61.3-24.2c26.7,13.1,56.3,20,86.2,20c107.9,0,195.7-87.8,195.7-195.7
		S305.8,0,197.8,0z M197.8,376.4c-29.1,0-58.1-7.1-83.7-20.5c-2.7-1.4-6.1-1-8.4,1c-15.6,13.5-35.4,19.5-47,22.1l8.9-53.6
		c0.4-2.3-0.3-4.6-1.9-6.4c-31.4-33.6-48.6-77.4-48.6-123.3C17.1,96.1,98.2,15,197.8,15s180.7,81.1,180.7,180.7
		S297.5,376.4,197.8,376.4z"/>
</g>
</svg>
