<?xml version="1.0" standalone="no"?>
<!DOCTYPE svg PUBLIC "-//W3C//DTD SVG 20010904//EN"
 "http://www.w3.org/TR/2001/REC-SVG-20010904/DTD/svg10.dtd">
<svg version="1.0" xmlns="http://www.w3.org/2000/svg"
 width="2400.000000pt" height="1038.000000pt" viewBox="0 0 2400.000000 1038.000000"
 preserveAspectRatio="xMidYMid meet">

<g transform="translate(0.000000,1038.000000) scale(0.100000,-0.100000)"
fill="#000000" stroke="none">
<path d="M14105 10369 c-874 -43 -1660 -374 -2410 -1015 -223 -190 -270 -242
-394 -428 -96 -144 -150 -240 -235 -416 -352 -733 -598 -1815 -657 -2890 -13
-237 -7 -843 11 -1070 88 -1127 308 -2046 656 -2740 159 -315 302 -517 516
-725 616 -601 1517 -982 2518 -1065 162 -14 601 -14 755 0 299 26 521 64 872
150 397 98 682 194 840 283 l71 40 4 366 3 366 -97 145 c-415 624 -680 1339
-778 2105 -44 344 -50 755 -15 1080 8 77 15 144 15 149 0 13 -246 -1 -419 -24
-349 -47 -457 -76 -529 -145 -44 -41 -44 -42 -52 -131 -5 -49 -11 -366 -15
-704 -4 -338 -10 -723 -14 -855 -7 -228 -8 -243 -32 -295 -53 -114 -136 -160
-293 -160 -193 0 -425 91 -658 257 -218 156 -398 405 -498 688 -110 315 -197
746 -246 1225 -21 212 -30 750 -15 982 42 649 150 1268 287 1635 68 183 107
246 234 374 221 222 420 346 658 411 61 17 108 21 227 21 177 1 227 -9 520
-108 237 -80 300 -108 416 -184 88 -59 165 -91 219 -91 72 0 254 135 380 283
222 260 431 724 546 1212 28 116 29 128 29 394 l0 273 -50 45 c-185 165 -470
290 -889 392 -448 109 -727 152 -1113 171 -109 5 -202 9 -208 8 -5 0 -77 -4
-160 -9z"/>
<path d="M7580 10053 c-869 -38 -1713 -382 -2458 -1001 -204 -171 -381 -408
-544 -728 -115 -226 -185 -395 -273 -659 -616 -1841 -513 -4327 240 -5815 154
-304 293 -499 505 -710 291 -291 627 -530 995 -710 977 -476 2069 -490 3070
-38 399 180 876 503 1134 768 129 133 297 368 398 558 l50 93 -57 132 c-296
680 -484 1534 -562 2557 -17 222 -17 1015 0 1225 75 928 260 1782 531 2456
l67 165 -54 100 c-69 127 -182 298 -259 394 -83 102 -314 326 -448 433 -593
473 -1268 734 -2011 777 -93 5 -189 9 -214 8 -25 -1 -74 -3 -110 -5z m188
-2399 c203 -41 381 -188 567 -469 53 -79 111 -181 134 -236 195 -459 332
-1495 292 -2209 -38 -691 -155 -1279 -317 -1601 -97 -194 -379 -517 -524 -602
-179 -104 -356 -94 -563 30 -174 105 -473 376 -538 488 -168 287 -292 865
-340 1575 -13 193 -7 693 10 900 50 582 150 1109 266 1398 50 123 94 196 184
304 229 274 484 430 714 437 21 0 73 -6 115 -15z"/>
<path d="M1830 8929 c-394 -25 -672 -95 -779 -197 -43 -42 -162 -271 -256
-493 -315 -748 -522 -1760 -634 -3104 -58 -694 -95 -1496 -121 -2635 -39
-1741 -39 -1716 -11 -1825 66 -250 220 -437 409 -495 63 -20 97 -20 2072 -20
l2008 0 43 32 c23 18 59 62 81 98 60 100 125 326 146 510 l8 65 -66 70 c-294
315 -551 811 -743 1436 l-51 169 -700 0 -699 0 7 188 c17 465 84 1043 196
1702 106 620 218 1160 504 2445 294 1317 353 1678 297 1800 -64 141 -340 223
-851 255 -188 11 -673 11 -860 -1z"/>
<path d="M19625 8349 c-999 -83 -1838 -462 -2481 -1121 -467 -478 -820 -1126
-993 -1823 -319 -1287 -66 -2714 682 -3835 253 -378 523 -649 896 -899 511
-343 1046 -532 1741 -618 208 -26 848 -25 1065 0 749 89 1331 302 1877 687
765 539 1287 1377 1493 2395 253 1251 -21 2629 -743 3735 -149 228 -251 357
-379 479 -525 502 -1183 823 -1943 950 -263 44 -384 53 -750 56 -195 2 -404
-1 -465 -6z m551 -2400 c431 -60 798 -368 1051 -884 273 -557 269 -1169 -13
-1734 -232 -467 -515 -725 -906 -826 -140 -37 -376 -46 -528 -20 -362 60 -630
247 -865 600 -162 244 -267 504 -317 785 -20 112 -17 450 5 570 46 252 109
436 237 695 108 219 162 302 275 422 199 213 434 344 695 388 95 16 266 18
366 4z"/>
<path d="M18753 4443 c-4 -32 -8 -152 -7 -268 0 -178 4 -226 23 -315 65 -306
215 -619 414 -867 32 -40 62 -72 65 -69 3 3 -1 338 -8 743 -9 550 -15 741 -25
751 -18 19 -104 39 -244 57 -69 8 -145 17 -168 21 l-41 5 -9 -58z"/>
</g>
</svg>
