<?xml version="1.0" encoding="utf-8"?>
<!-- Uploaded to SVGRepo https://www.svgrepo.com -->
<svg version="1.1" id="Layer_1" xmlns="http://www.w3.org/2000/svg" xmlns:xlink="http://www.w3.org/1999/xlink" x="0px" y="0px"
	 width="256px" height="178px" viewBox="0 0 256 178" enable-background="new 0 0 256 178" xml:space="preserve">
<path d="M183.882,38.248c0,8.995,7.292,16.287,16.287,16.287c8.995,0,16.287-7.292,16.287-16.287s-7.292-16.287-16.287-16.287
	C191.174,21.961,183.882,29.253,183.882,38.248z M167.193,92.774v-12.72c0-11.179,9.126-20.349,20.349-20.349h26.642
	c11.179,0,20.349,9.126,20.349,20.349v12.72H167.193z M95.721,2.416v23.543c-2.871,0-8.236,0.615-12.1,1.784
	c-10.322,3.123-19.031,10.11-24.369,21.786L2,175.584h78.75l5.069-16.893c22.193-5.386,38.809-22.446,45.51-43.894l0.084,0.001
	c0.167-0.748,0.389-1.483,0.627-2.214H254V2.416H95.721z M246.125,104.709H115.408c-2.957,15.124-14.146,28.884-29.224,35.043
	c-0.487,0.199-0.992,0.293-1.488,0.293c-1.552,0-3.023-0.924-3.647-2.449c-0.822-2.013,0.143-4.311,2.156-5.134
	c14.768-6.032,25.085-20.66,25.105-35.583v-3.981h40.386c5.966-0.001,10.803-4.837,10.803-10.803c0-5.962-4.83-10.797-10.793-10.802
	l-70.91-0.053c-2.174,0-3.938-1.763-3.938-3.938s1.763-3.938,3.938-3.938h25.799V10.291h142.529V104.709z M115.408,25.959H159.5
	v7.875h-44.092V25.959z M115.408,45.647H159.5v7.875h-44.092V45.647z"/>
</svg>
