<?xml version="1.0" encoding="UTF-8"?>
<svg width="700pt" height="700pt" version="1.1" viewBox="0 0 700 700" xmlns="http://www.w3.org/2000/svg">
 <g>
  <path d="m441.54 34.965c-76.328 57.789-132.61 138.06-160.92 229.52l-37.223 112.55c-7.4297 9.5859-10.672 21.762-8.9922 33.773 1.6797 12.008 8.1367 22.828 17.914 30.008-5.9688 9.9102-9.1602 21.242-9.2539 32.809-0.089844 11.57 2.9297 22.949 8.7383 32.953 2.4453 4.1406 7.7734 5.5352 11.93 3.1211 4.1602-2.4141 5.5938-7.7305 3.2148-11.906-4.3984-7.5664-6.5977-16.211-6.3555-24.957 0.24219-8.75 2.9141-17.258 7.7227-24.57 12.25 3.0078 25.199 0.72656 35.688-6.2812 10.484-7.0078 17.547-18.098 19.457-30.566 1.9141-12.469-1.5039-25.168-9.4102-34.992-7.9062-9.8281-19.578-15.883-32.168-16.684l1.6758-7.7266c0.71094-3.3164 2.375-6.3594 4.7852-8.75 2.4062-2.3906 5.4609-4.0273 8.7852-4.7148l8.8516-1.8828c5.6328-1.1602 10.336-5.0195 12.578-10.32zm-46.828 65.969-92.285 218.61-8.8164 1.8438c-5.9336 1.2266-11.445 3.9727-15.996 7.9648l19.684-59.508c19.434-62.879 52.723-120.6 97.414-168.91zm-116.52 276.17c7.4141-0.20312 14.594 2.6055 19.906 7.7812s8.3008 12.281 8.293 19.699c0.19141 7.4023-2.6133 14.566-7.7812 19.871-5.168 5.3047-12.262 8.2969-19.664 8.2969-7.4062 0-14.496-2.9922-19.664-8.2969-5.168-5.3047-7.9766-12.469-7.7812-19.871-0.011719-7.1562 2.7734-14.035 7.7617-19.168 4.9844-5.1328 11.777-8.1133 18.93-8.3125z"/>
  <path d="m280.07 215.07-50.141 18.457-0.003906-0.003906c-5.4023 1.9961-9.4805 6.5195-10.902 12.102l-2.2227 8.7148c-0.83594 3.293-2.6133 6.2734-5.1133 8.5742s-5.6172 3.8203-8.9688 4.3828l-7.8281 1.3281h0.003906c-0.26172-13.469-6.5508-26.113-17.137-34.449-10.586-8.3359-24.352-11.484-37.508-8.5781-13.152 2.9062-24.312 11.559-30.402 23.574-6.0938 12.02-6.4727 26.133-1.0352 38.461 5.4336 12.328 16.113 21.566 29.094 25.176 12.98 3.6094 26.898 1.2031 37.914-6.5508l79.98-22.387 6.6328-20.027-37.359 10.457c4.1914-4.3594 7.1836-9.7305 8.6797-15.586l2.2227-8.75 35.512-13.094c2.6797-7.3359 5.543-14.609 8.582-21.805zm-130.84 26.898c7.418-0.19922 14.602 2.6094 19.914 7.793s8.3008 12.297 8.2812 19.723c0 9.8086-5.2344 18.875-13.73 23.781s-18.965 4.9062-27.465 0c-8.4961-4.9062-13.73-13.973-13.73-23.781-0.015625-7.168 2.7695-14.059 7.7617-19.199 4.9961-5.1406 11.801-8.125 18.969-8.3164z"/>
  <path d="m460.81 403.81-84.035 107.04c-2.9844 3.8008-2.3203 9.3008 1.4805 12.285 3.8008 2.9844 9.3008 2.3203 12.285-1.4805l202.43-257.85c3.2461-4.1328 2.5234-10.117-1.6094-13.367l-42.207-33.137c-3.8008-2.9297-9.2578-2.2461-12.223 1.5273-2.9648 3.7773-2.332 9.2383 1.418 12.238l35.93 28.211-5.4023 6.8867-35.93-28.211c-3.8047-2.9219-9.25-2.2383-12.215 1.5352-2.9609 3.7734-2.332 9.2266 1.4062 12.227l35.93 28.211-5.4023 6.8789-35.93-28.211c-3.8008-2.9492-9.2734-2.2734-12.246 1.5117-2.9727 3.7852-2.3281 9.2578 1.4375 12.254l35.93 28.211-5.4023 6.8867-35.93-28.211v-0.003906c-3.8047-2.9297-9.2578-2.2461-12.223 1.5273-2.9648 3.7773-2.332 9.2383 1.418 12.238l35.93 28.211-5.4023 6.8867-35.93-28.211h-0.003906c-3.8047-2.9336-9.2578-2.25-12.223 1.5273-2.9648 3.7773-2.332 9.2383 1.418 12.234l35.93 28.211-5.4023 6.8789-35.93-28.211c-3.8047-2.9492-9.2734-2.2734-12.246 1.5117-2.9727 3.7852-2.332 9.2578 1.4375 12.254l35.93 28.211-5.4023 6.8867-35.93-28.211c-3.8047-2.9531-9.2773-2.2812-12.25 1.5078-2.9727 3.7852-2.3281 9.2617 1.4414 12.254l35.93 28.211-5.4023 6.8789-35.93-28.203c-3.8047-2.9336-9.2617-2.2539-12.227 1.5234-2.9648 3.7773-2.332 9.2422 1.418 12.238z"/>
  <path d="m372.17 244.36 10.52-24.922c27.047-14.465 52.508-31.715 75.965-51.473l-64.223 23.645 9.3203-22.078 122.97-45.289 0.003906 0.003906c-42.254 50.715-94.977 91.688-154.55 120.11z"/>
 </g>
</svg>
