<svg viewBox="0 0 136.03 295.63" xmlns="http://www.w3.org/2000/svg">
    <path style="fill:#e75a2f;" transform="translate(-25.54 -58.33)" d="m25.54 206.14a7 7 0 0 0 7 7h90.1a7 7 0 0 0 0-14h-90.1a7 7 0 0 0-7 7z"/>
    <path style="fill:#e75a2f;" transform="translate(-25.54 -58.33)" d="M128.38,246.6,89,265a7,7,0,0,0,5.91,12.69l39.4-18.37a7,7,0,1,0-5.91-12.69Z"/>
    <path style="fill:#e75a2f;" transform="translate(-25.54 -58.33)" d="m159.53 124.08-63.71-63.7a7 7 0 0 0-9.9 9.9l63.71 63.72a7 7 0 0 0 9.9-9.9z"/>
    <path style="fill:#e75a2f;" transform="translate(-25.54 -58.33)" d="m85.92 342a7 7 0 0 0 9.9 9.9l63.71-63.71a7 7 0 0 0-9.9-9.89z"/>
    <path style="fill:#e75a2f;" transform="translate(-25.54 -58.33)" d="M128.37,165.69a6.92,6.92,0,0,0,2.95.66,7,7,0,0,0,3-13.35l-39.4-18.37A7,7,0,1,0,89,147.32Z"/>
</svg>