<svg xmlns="http://www.w3.org/2000/svg" viewBox="0 0 136.03 295.63">
    <path style="fill:#e75a2f;" d="M154.58,199.14H64.48a7,7,0,0,0,0,14h90.1a7,7,0,1,0,0-14Z" transform="translate(-25.54 -58.33)"/>
    <path style="fill:#e75a2f;" d="M49.44,250a7,7,0,0,0,3.39,9.31l39.4,18.37A7,7,0,0,0,98.14,265L58.74,246.6A7,7,0,0,0,49.44,250Z" transform="translate(-25.54 -58.33)"/>
    <path style="fill:#e75a2f;" d="M27.59,134a7,7,0,0,0,9.9,0l63.71-63.7a7,7,0,1,0-9.9-9.9l-63.71,63.7A7,7,0,0,0,27.59,134Z" transform="translate(-25.54 -58.33)"/>
    <path style="fill:#e75a2f;" d="M37.49,278.31a7,7,0,0,0-9.9,9.89L91.3,351.91a7,7,0,1,0,9.9-9.9Z" transform="translate(-25.54 -58.33)"/>
    <path style="fill:#e75a2f;" d="M98.14,147.32a7,7,0,1,0-5.91-12.69L52.83,153a7,7,0,0,0,3,13.35,6.92,6.92,0,0,0,3-.66Z" transform="translate(-25.54 -58.33)"/>
</svg>