<?xml version="1.0" encoding="UTF-8"?>
<!DOCTYPE svg  PUBLIC '-//W3C//DTD SVG 1.1//EN'  'http://www.w3.org/Graphics/SVG/1.1/DTD/svg11.dtd'>
<svg enable-background="new 0 0 277.363 277.363" version="1.1" viewBox="0 0 277.36 277.36" xml:space="preserve" xmlns="http://www.w3.org/2000/svg">

	<path d="m99.553 106.87c1.232 0 2.48-0.087 3.706-0.257 9.713-1.338 18.048-7.695 23.469-17.9 5.161-9.715 7.064-21.851 5.359-34.17-3.301-23.86-20.066-42.551-38.166-42.551-1.232 0-2.481 0.087-3.711 0.258-9.473 1.317-17.687 7.491-23.127 17.382-5.41 9.824-7.432 22.149-5.696 34.703 3.306 23.851 20.07 42.535 38.166 42.535zm-24.456-72.828c4.016-7.3 9.83-11.822 16.375-12.732 0.814-0.113 1.639-0.171 2.45-0.171 13.404 0 26.461 15.547 29.105 34.658 1.443 10.429-0.111 20.595-4.377 28.625-4.006 7.541-9.915 12.204-16.644 13.131-0.815 0.113-1.64 0.171-2.453 0.171-13.401 0-26.458-15.541-29.104-34.643-1.469-10.616 0.182-20.928 4.648-29.039z"/>
	<path d="m25.392 75.8c-1.883 0-3.776 0.234-5.658 0.704-7.685 1.974-13.75 7.688-17.078 16.089-3.129 7.899-3.506 17.482-1.064 26.982 4.484 17.494 17.229 29.712 30.99 29.712 1.876 0 3.767-0.234 5.654-0.704 15.356-3.95 23.325-22.867 18.143-43.064-4.482-17.498-17.225-29.719-30.987-29.719zm10.6 63.916c-1.13 0.281-2.278 0.424-3.41 0.424-9.583 0-18.683-9.391-22.13-22.839-1.966-7.645-1.714-15.224 0.708-21.339 2.221-5.608 6.074-9.372 10.818-10.591 1.127-0.281 2.275-0.423 3.413-0.423 9.583 0 18.681 9.393 22.128 22.843 3.909 15.234-1.17 29.26-11.527 31.925z"/>
	<path d="m187.17 12.249c-1.227-0.172-2.478-0.259-3.717-0.259-18.1 0-34.864 18.691-38.166 42.552-1.701 12.32 0.204 24.455 5.366 34.169 5.422 10.206 13.756 16.563 23.466 17.9 1.217 0.168 2.456 0.253 3.685 0.253 18.109 0 34.886-18.689 38.191-42.545 1.732-12.542-0.292-24.862-5.699-34.688-5.452-9.912-13.67-16.086-23.126-17.382zm19.763 50.817c-2.692 19.431-15.487 34.652-29.13 34.652-0.812 0-1.631-0.057-2.436-0.167-6.722-0.926-12.631-5.589-16.638-13.13-4.266-8.03-5.822-18.196-4.382-28.625 2.645-19.11 15.702-34.658 29.105-34.658 0.816 0 1.64 0.057 2.461 0.172 6.532 0.896 12.344 5.417 16.367 12.731 4.466 8.113 6.118 18.421 4.653 29.025z"/>
	<path d="m257.61 76.496c-1.851-0.462-3.743-0.696-5.624-0.696-13.764 0-26.508 12.221-30.991 29.719-5.176 20.2 2.794 39.116 18.176 43.073 1.851 0.462 3.742 0.695 5.615 0.695 1e-3 0 0.024-1e-3 0.027 0 13.749 0 26.484-12.218 30.97-29.713 5.178-20.205-2.791-39.124-18.173-43.078zm9.313 40.807c-3.448 13.446-12.54 22.837-22.11 22.836h-0.021c-1.133 0-2.28-0.143-3.374-0.415-10.387-2.672-15.465-16.7-11.561-31.936 3.445-13.449 12.545-22.842 22.129-22.842 1.136 0 2.283 0.143 3.378 0.416 10.387 2.671 15.463 16.701 11.559 31.941z"/>
	<path d="m172.35 125.68c-13.003 0-24.759 6.298-33.672 17.889-8.907-11.59-20.66-17.889-33.659-17.889-19.626 0-36.995 14.362-42.238 34.925-2.809 11.014-3.352 28.615 10.009 49.921 12.364 19.715 33.794 37.982 63.697 54.292 0.683 0.373 1.436 0.559 2.19 0.559 0.753 0 1.507-0.186 2.19-0.559 29.91-16.311 51.347-34.578 63.715-54.293 13.366-21.306 12.825-38.907 10.017-49.92-5.244-20.563-22.617-34.925-42.249-34.925zm-33.674 129.9c-73.637-40.985-69.953-81.262-67.032-92.716 4.209-16.508 17.934-28.038 33.374-28.038 11.68 0 22.243 6.824 29.745 19.214 0.829 1.369 2.312 2.205 3.912 2.205h1e-3c1.6 0 3.083-0.835 3.912-2.204 7.508-12.392 18.078-19.216 29.762-19.216 15.448 0 29.176 11.529 33.385 28.037 2.919 11.455 6.599 51.729-67.059 92.718z"/>
</svg>
