<?xml version="1.0" encoding="UTF-8"?><svg enable-background="new 0 0 330 330" version="1.1" viewBox="0 0 330 330" xml:space="preserve" xmlns="http://www.w3.org/2000/svg"><path fill="rgb(101, 174, 101)" d="M165,0C74.019,0,0,74.019,0,165s74.019,165,165,165s165-74.019,165-165S255.981,0,165,0z M165,300   c-74.44,0-135-60.561-135-135S90.56,30,165,30s135,60.561,135,135S239.439,300,165,300z"/><path fill="#43A047" d="m226.87 106.66-84.854 84.853-38.89-38.891c-5.857-5.857-15.355-5.858-21.213-1e-3 -5.858 5.858-5.858 15.355 0 21.213l49.496 49.498c2.813 2.813 6.628 4.394 10.606 4.394h1e-3c3.978 0 7.793-1.581 10.606-4.393l95.461-95.459c5.858-5.858 5.858-15.355 0-21.213s-15.355-5.859-21.213-1e-3z"/></svg>