<?xml version="1.0" encoding="UTF-8"?><svg enable-background="new 0 0 191.812 191.812" version="1.1" viewBox="0 0 191.81 191.81" xml:space="preserve" xmlns="http://www.w3.org/2000/svg"><g fill="#F2C063"><path fill="#B71C1C" d="m95.906 121c6.903 0 12.5-5.597 12.5-12.5v-56.992c0-6.904-5.597-12.5-12.5-12.5s-12.5 5.596-12.5 12.5v56.993c0 6.903 5.597 12.499 12.5 12.499z"/><path fill="#B71C1C" d="m95.909 127.81c-3.29 0-6.521 1.33-8.841 3.66-2.329 2.32-3.659 5.54-3.659 8.83s1.33 6.52 3.659 8.84c2.32 2.33 5.551 3.66 8.841 3.66s6.51-1.33 8.84-3.66c2.319-2.32 3.66-5.55 3.66-8.84s-1.341-6.51-3.66-8.83c-2.33-2.33-5.55-3.66-8.84-3.66z"/><path fill="#B71C1C" d="M95.906,0C43.024,0,0,43.023,0,95.906s43.023,95.906,95.906,95.906s95.905-43.023,95.905-95.906   S148.789,0,95.906,0z M95.906,176.812C51.294,176.812,15,140.518,15,95.906S51.294,15,95.906,15   c44.611,0,80.905,36.294,80.905,80.906S140.518,176.812,95.906,176.812z"/></g></svg>