<?xml version="1.0" encoding="UTF-8"?>
<svg enable-background="new 0 0 455 455" version="1.1" viewBox="0 0 455 455" xml:space="preserve" xmlns="http://www.w3.org/2000/svg">
<path d="m227.5 0c-125.64 0-227.5 101.86-227.5 227.5s101.86 227.5 227.5 227.5 227.5-101.86 227.5-227.5-101.86-227.5-227.5-227.5zm-110 262.5c-19.299 0-35-15.701-35-35s15.701-35 35-35 35 15.701 35 35-15.701 35-35 35zm110 0c-19.299 0-35-15.701-35-35s15.701-35 35-35 35 15.701 35 35-15.701 35-35 35zm110 0c-19.299 0-35-15.701-35-35s15.701-35 35-35 35 15.701 35 35-15.701 35-35 35z"/>
</svg>
