<?xml version="1.0" encoding="iso-8859-1"?>
<!-- Generator: Adobe Illustrator 19.0.0, SVG Export Plug-In . SVG Version: 6.00 Build 0)  -->
<svg version="1.1" id="Layer_1" xmlns="http://www.w3.org/2000/svg" xmlns:xlink="http://www.w3.org/1999/xlink" x="0px" y="0px"
	 viewBox="0 0 512.001 512.001" style="enable-background:new 0 0 512.001 512.001;" xml:space="preserve">
<g>
	<circle style="fill:#FFD960;" cx="357.364" cy="216.417" r="52.006"/>
	<circle style="fill:#FFD960;" cx="139.942" cy="216.417" r="52.006"/>
</g>
<g>
	<circle style="fill:#578CAD;" cx="248.653" cy="28.326" r="20.223"/>
	<path style="fill:#578CAD;" d="M405.927,456.616c-5.861-8.071-17.152-9.863-25.22-4.005c-18.496,13.428-41.88,18.25-64.155,13.236
		c-42.74-9.621-69.682-52.221-60.062-94.962l2.906-12.906h-37.019l-1.119,4.976c-13.996,62.167,25.194,124.128,87.359,138.123
		c32.402,7.294,66.408,0.281,93.3-19.241C409.991,475.979,411.784,464.688,405.927,456.616z"/>
	<path style="fill:#578CAD;" d="M221.26,362.955l1.119-4.976h-19.161c-12.638,20.113-35.396,32.43-60.036,31.183
		c-11.816-0.597-23.262-4.303-33.1-10.717c-8.354-5.447-19.542-3.09-24.987,5.264c-5.447,8.354-3.09,19.541,5.266,24.987
		c15.178,9.896,32.815,15.614,50.998,16.533c29.535,1.494,57.306-9.688,77.343-29.333C217.991,385.1,218.767,374.033,221.26,362.955
		z"/>
	<path style="fill:#578CAD;" d="M422.873,354.554c-7.875-6.118-19.22-4.692-25.337,3.185c-16,20.602-42.744,30.077-68.133,24.139
		c-15.027-3.514-28.149-12.048-37.434-23.901h-32.57l-2.754,12.229c14.245,23.439,37.352,40.48,64.533,46.837
		c39.083,9.14,80.251-5.443,104.881-37.153C432.176,372.014,430.749,360.671,422.873,354.554z"/>
</g>
<path style="fill:#90C8EC;" d="M303.845,106.344c-16.707-8.007-35.423-12.493-55.188-12.493c-50.146,0-93.539,28.868-114.493,70.885
	c1.9-0.21,3.826-0.327,5.782-0.327c28.721,0,52.005,23.283,52.005,52.005c0,28.721-23.284,52.004-52.005,52.004
	c-6.769,0-13.227-1.307-19.159-3.66v75.887c0,9.574,7.761,17.335,17.335,17.335h221.074c9.573,0,17.335-7.761,17.335-17.335v-75.887
	c-5.93,2.353-12.391,3.66-19.16,3.66c-28.721,0-52.004-23.283-52.004-52.004c0-28.722,23.283-52.005,52.004-52.005
	c1.956,0,3.884,0.118,5.782,0.327c-8.475-16.994-20.62-31.838-35.399-43.49"/>
<g style="opacity:0.2;">
	<path style="fill:#231F20;" d="M331.073,216.413c0-24.284,16.645-44.678,39.149-50.399c-4.112-1.046-8.418-1.604-12.855-1.604
		c-28.721,0-52.004,23.283-52.004,52.005c0,28.721,23.283,52.004,52.004,52.004c4.437,0,8.744-0.56,12.855-1.604
		C347.718,261.09,331.073,240.697,331.073,216.413z"/>
</g>
<g style="opacity:0.2;">
	<path style="fill:#231F20;" d="M113.65,216.413c0-24.284,16.646-44.677,39.149-50.399c-4.113-1.046-8.418-1.604-12.855-1.604
		c-28.72,0-52.004,23.283-52.004,52.005c0,28.721,23.284,52.004,52.004,52.004c4.437,0,8.743-0.56,12.855-1.604
		C130.296,261.09,113.65,240.697,113.65,216.413z"/>
</g>
<g style="opacity:0.2;">
	<path style="fill:#231F20;" d="M146.493,340.643v-72.653c-2.147,0.27-4.33,0.425-6.55,0.425c-6.769,0-13.227-1.307-19.159-3.66
		v75.887c0,9.574,7.761,17.335,17.335,17.335h25.709C154.254,357.979,146.493,350.218,146.493,340.643z"/>
	<path style="fill:#231F20;" d="M157,167.285l3.449-2.598c-0.192,0.019-0.387,0.028-0.578,0.049
		c19.142-38.384,57.013-65.78,101.648-70.234c-4.232-0.422-8.52-0.652-12.863-0.652c-50.146,0-93.539,28.868-114.493,70.885
		c1.9-0.21,3.826-0.327,5.782-0.327C145.921,164.409,151.656,165.43,157,167.285z"/>
</g>
<g style="opacity:0.2;">
	<circle style="fill:#231F20;" cx="248.653" cy="28.326" r="20.223"/>
</g>
<g>
	<circle style="fill:#231F20;" cx="139.942" cy="216.417" r="17.339"/>
	<circle style="fill:#231F20;" cx="359.19" cy="216.417" r="17.339"/>
	<path style="fill:#231F20;" d="M272.999,288.779c-3.133,10.741-13.144,18.244-24.342,18.244c-11.197,0-21.207-7.503-24.342-18.244
		c-1.252-4.296-5.75-6.762-10.047-5.508c-4.295,1.253-6.763,5.753-5.508,10.048c5.139,17.61,21.544,29.909,39.898,29.909
		c18.354,0,34.762-12.299,39.9-29.91c1.253-4.296-1.213-8.794-5.51-10.047C278.75,282.016,274.253,284.484,272.999,288.779z"/>
	<path style="fill:#231F20;" d="M427.843,348.156c-4.632-3.6-10.176-5.501-16.034-5.501c-8.144,0-15.681,3.687-20.674,10.115
		c-11.063,14.247-28.478,22.753-46.582,22.754c-4.475,0-8.951-0.516-13.306-1.534c-6.614-1.547-12.887-4.248-18.542-7.909h46.488
		c14.026,0,25.437-11.411,25.437-25.437v-70.691c19.474-9.956,32.844-30.21,32.844-53.54c0-29.362-21.169-53.857-49.041-59.068
		c-8.809-16.334-21.07-30.952-35.667-42.461c-3.514-2.77-8.61-2.168-11.379,1.346c-2.77,3.513-2.168,8.608,1.346,11.379
		c10.375,8.18,19.413,18.137,26.593,29.233c-0.201,0.027-0.398,0.066-0.597,0.094c-0.412,0.059-0.82,0.126-1.228,0.194
		c-0.544,0.09-1.087,0.186-1.626,0.291c-0.412,0.08-0.821,0.164-1.229,0.253c-0.53,0.115-1.059,0.238-1.584,0.366
		c-0.405,0.099-0.809,0.2-1.212,0.308c-0.523,0.139-1.04,0.29-1.558,0.443c-0.395,0.118-0.791,0.233-1.183,0.359
		c-0.52,0.166-1.033,0.345-1.547,0.524c-0.378,0.133-0.758,0.261-1.133,0.401c-0.529,0.198-1.052,0.409-1.575,0.622
		c-0.349,0.142-0.7,0.277-1.046,0.423c-0.579,0.247-1.149,0.513-1.719,0.778c-0.279,0.13-0.562,0.251-0.837,0.383
		c-0.833,0.404-1.655,0.824-2.465,1.265c-0.224,0.122-0.441,0.255-0.663,0.379c-0.59,0.329-1.178,0.661-1.754,1.01
		c-0.321,0.194-0.634,0.401-0.952,0.601c-0.468,0.295-0.936,0.588-1.395,0.894c-0.339,0.227-0.67,0.463-1.004,0.698
		c-0.426,0.298-0.852,0.595-1.269,0.903c-0.338,0.25-0.669,0.508-1.001,0.764c-0.401,0.309-0.801,0.619-1.193,0.938
		c-0.332,0.269-0.658,0.544-0.983,0.821c-0.381,0.323-0.759,0.649-1.132,0.981c-0.32,0.285-0.636,0.574-0.951,0.866
		c-0.365,0.339-0.725,0.683-1.081,1.032c-0.307,0.299-0.61,0.6-0.911,0.905c-0.351,0.359-0.696,0.723-1.038,1.089
		c-0.288,0.309-0.578,0.618-0.86,0.933c-0.341,0.381-0.673,0.769-1.005,1.159c-0.268,0.315-0.538,0.628-0.801,0.947
		c-0.337,0.413-0.661,0.835-0.987,1.256c-0.24,0.31-0.485,0.617-0.719,0.932c-0.352,0.473-0.688,0.958-1.026,1.442
		c-0.192,0.275-0.392,0.544-0.579,0.823c-0.513,0.762-1.01,1.534-1.489,2.32c-0.097,0.16-0.186,0.325-0.282,0.486
		c-0.38,0.637-0.755,1.278-1.112,1.931c-0.169,0.309-0.325,0.625-0.488,0.938c-0.27,0.514-0.54,1.027-0.795,1.55
		c-0.171,0.351-0.331,0.709-0.495,1.063c-0.23,0.495-0.459,0.99-0.675,1.492c-0.161,0.374-0.312,0.753-0.467,1.131
		c-0.201,0.494-0.4,0.987-0.588,1.488c-0.147,0.39-0.285,0.782-0.423,1.175c-0.176,0.499-0.347,0.999-0.51,1.504
		c-0.13,0.401-0.253,0.803-0.374,1.207c-0.152,0.509-0.297,1.02-0.436,1.534c-0.11,0.406-0.217,0.813-0.319,1.223
		c-0.13,0.524-0.25,1.051-0.366,1.58c-0.09,0.407-0.178,0.815-0.259,1.225c-0.107,0.546-0.202,1.094-0.295,1.644
		c-0.068,0.402-0.138,0.802-0.198,1.206c-0.085,0.578-0.153,1.161-0.223,1.745c-0.045,0.382-0.096,0.764-0.134,1.149
		c-0.064,0.646-0.106,1.299-0.149,1.95c-0.022,0.328-0.053,0.654-0.069,0.983c-0.048,0.983-0.076,1.972-0.076,2.967
		c0,33.143,26.963,60.106,60.106,60.106c0.986,0,1.969-0.027,2.949-0.075c0.332-0.016,0.659-0.046,0.988-0.068
		c0.644-0.042,1.287-0.084,1.927-0.147c0.401-0.039,0.797-0.092,1.195-0.138c0.56-0.066,1.119-0.132,1.676-0.214
		c0.443-0.065,0.882-0.142,1.321-0.216c0.334-0.056,0.669-0.102,1.001-0.163v65.147c0,5.09-4.142,9.232-9.232,9.232h-67.225h-32.57
		H222.38h-19.161H138.12c-5.09,0-9.232-4.142-9.232-9.232v-65.147c0.329,0.062,0.662,0.106,0.993,0.162
		c0.443,0.076,0.886,0.152,1.332,0.217c0.553,0.081,1.108,0.146,1.664,0.212c0.402,0.048,0.802,0.1,1.206,0.139
		c0.637,0.063,1.278,0.105,1.919,0.146c0.333,0.022,0.662,0.053,0.996,0.069c0.98,0.048,1.962,0.075,2.948,0.075
		c33.144,0,60.107-26.963,60.107-60.106c0-0.995-0.027-1.985-0.076-2.969c-0.016-0.327-0.048-0.65-0.068-0.976
		c-0.042-0.654-0.085-1.308-0.149-1.956c-0.038-0.383-0.09-0.764-0.134-1.145c-0.069-0.586-0.137-1.17-0.224-1.751
		c-0.059-0.401-0.13-0.797-0.197-1.196c-0.093-0.554-0.188-1.107-0.297-1.656c-0.08-0.406-0.169-0.809-0.257-1.212
		c-0.117-0.535-0.239-1.067-0.369-1.597c-0.1-0.403-0.205-0.804-0.313-1.205c-0.142-0.522-0.288-1.041-0.444-1.559
		c-0.119-0.395-0.24-0.789-0.366-1.181c-0.166-0.515-0.341-1.026-0.521-1.536c-0.135-0.382-0.27-0.765-0.412-1.143
		c-0.193-0.514-0.398-1.022-0.604-1.53c-0.148-0.364-0.294-0.728-0.449-1.089c-0.225-0.522-0.463-1.036-0.702-1.551
		c-0.156-0.335-0.306-0.672-0.468-1.004c-0.271-0.555-0.557-1.101-0.845-1.646c-0.147-0.28-0.287-0.564-0.439-0.84
		c-0.395-0.723-0.807-1.434-1.23-2.138c-0.055-0.092-0.106-0.188-0.162-0.28c-0.485-0.797-0.99-1.582-1.51-2.354
		c-0.146-0.217-0.302-0.427-0.452-0.642c-0.379-0.548-0.761-1.092-1.157-1.627c-0.206-0.278-0.423-0.548-0.634-0.822
		c-0.354-0.46-0.709-0.919-1.076-1.369c-0.238-0.292-0.484-0.576-0.728-0.862c-0.356-0.42-0.714-0.838-1.081-1.249
		c-0.26-0.291-0.526-0.574-0.792-0.859c-0.366-0.393-0.736-0.784-1.113-1.168c-0.278-0.282-0.56-0.561-0.843-0.837
		c-0.381-0.373-0.766-0.74-1.156-1.103c-0.292-0.27-0.584-0.538-0.882-0.803c-0.399-0.355-0.803-0.704-1.211-1.049
		c-0.301-0.255-0.603-0.509-0.909-0.757c-0.421-0.342-0.85-0.675-1.28-1.007c-0.305-0.234-0.608-0.471-0.918-0.699
		c-0.452-0.334-0.912-0.656-1.373-0.978c-0.301-0.21-0.598-0.423-0.903-0.628c-0.503-0.337-1.017-0.66-1.53-0.982
		c-0.273-0.172-0.543-0.35-0.82-0.517c-0.642-0.389-1.295-0.759-1.953-1.125c-0.158-0.087-0.31-0.181-0.469-0.268
		c-0.822-0.446-1.656-0.874-2.501-1.282c-0.204-0.099-0.415-0.188-0.621-0.284c-0.641-0.3-1.283-0.597-1.936-0.876
		c-0.312-0.134-0.631-0.255-0.946-0.383c-0.555-0.226-1.109-0.451-1.672-0.66c-0.355-0.133-0.715-0.254-1.074-0.379
		c-0.534-0.187-1.066-0.373-1.606-0.544c-0.379-0.121-0.762-0.232-1.144-0.347c-0.528-0.157-1.059-0.311-1.593-0.454
		c-0.394-0.106-0.792-0.204-1.189-0.301c-0.532-0.131-1.066-0.255-1.603-0.371c-0.405-0.087-0.811-0.171-1.219-0.25
		c-0.541-0.105-1.086-0.202-1.631-0.293c-0.409-0.068-0.818-0.134-1.23-0.193c-0.205-0.03-0.408-0.069-0.615-0.097
		c21.931-34.158,59.43-54.885,100.703-54.885c18.104,0,35.492,3.936,51.687,11.696c4.03,1.935,8.875,0.232,10.808-3.804
		c1.934-4.035,0.23-8.875-3.805-10.808c-15.966-7.652-32.948-12.026-50.587-13.049V55.466c11.682-3.495,20.224-14.336,20.224-27.139
		C276.982,12.708,264.275,0,248.656,0c-15.618,0-28.324,12.708-28.324,28.327c0,12.804,8.541,23.645,20.222,27.139v30.541
		c-22.897,1.356-45.018,8.424-64.418,20.681c-19.885,12.563-36.148,30.021-47.259,50.658c-27.871,5.211-49.037,29.707-49.037,59.068
		c0,23.33,13.371,43.584,32.843,53.54v70.691c0,14.026,11.411,25.437,25.437,25.437h47.793c-10.63,9.6-24.5,15.065-39.311,15.065
		c-0.997,0-2.008-0.025-3.009-0.076c-10.387-0.525-20.445-3.78-29.084-9.412c-4.263-2.78-9.199-4.249-14.271-4.249
		c-8.884,0-17.083,4.439-21.929,11.875c-3.817,5.853-5.125,12.843-3.684,19.68c1.44,6.837,5.459,12.704,11.313,16.52
		c16.377,10.678,35.402,16.846,55.013,17.837c1.879,0.095,3.784,0.144,5.663,0.144c24.011,0,46.927-7.618,65.931-21.691
		c2.901,14.942,8.597,29.372,16.987,42.638c17.676,27.946,45.131,47.327,77.309,54.572c8.893,2.002,18.025,3.017,27.14,3.017
		c0.001,0,0.002,0,0.003,0c26.285,0,51.424-8.163,72.696-23.606c11.674-8.472,14.277-24.863,5.803-36.539
		c-4.907-6.757-12.825-10.792-21.184-10.792c-5.546,0-10.855,1.726-15.351,4.991c-12.28,8.916-26.792,13.628-41.963,13.628
		c-5.256,0-10.522-0.586-15.651-1.74c-31.976-7.198-54.088-34.956-55.586-66.215c15.028,16.368,34.821,28.116,56.586,33.206
		c8.236,1.926,16.705,2.904,25.172,2.904c0.002,0,0.003,0,0.005,0c34.168,0,67.047-16.065,87.949-42.976
		C441.306,373.468,439.235,357.001,427.843,348.156z M313.466,216.413c0-24.207,19.695-43.902,43.901-43.902
		c1.564,0,3.203,0.094,4.873,0.277c21.923,2.433,39.03,21.065,39.03,43.625c0,18.663-11.712,34.632-28.167,40.974
		c-0.395,0.152-0.792,0.3-1.19,0.44c-0.258,0.091-0.519,0.178-0.78,0.265c-0.402,0.133-0.804,0.263-1.209,0.384
		c-0.28,0.084-0.563,0.162-0.846,0.241c-0.387,0.107-0.773,0.213-1.161,0.309c-0.315,0.079-0.634,0.149-0.953,0.22
		c-0.362,0.081-0.723,0.162-1.086,0.234c-0.358,0.07-0.719,0.132-1.08,0.193c-0.332,0.057-0.663,0.117-0.996,0.166
		c-0.404,0.059-0.812,0.107-1.221,0.156c-0.298,0.036-0.595,0.077-0.895,0.106c-0.469,0.045-0.942,0.077-1.415,0.108
		c-0.244,0.016-0.488,0.04-0.732,0.052c-0.719,0.035-1.444,0.055-2.172,0.055C333.16,260.314,313.466,240.62,313.466,216.413z
		 M236.536,28.327c0-6.684,5.436-12.122,12.12-12.122c6.685,0,12.122,5.438,12.122,12.122s-5.437,12.122-12.122,12.122
		C241.973,40.448,236.536,35.01,236.536,28.327z M96.043,216.413c0-22.557,17.102-41.187,39.019-43.624
		c1.674-0.185,3.317-0.278,4.882-0.278c24.207,0,43.902,19.694,43.902,43.902c0,24.207-19.694,43.901-43.902,43.901
		c-0.728,0-1.452-0.021-2.171-0.055c-0.248-0.012-0.495-0.036-0.742-0.053c-0.47-0.031-0.939-0.062-1.404-0.107
		c-0.304-0.03-0.605-0.071-0.909-0.107c-0.403-0.048-0.806-0.095-1.205-0.153c-0.339-0.05-0.676-0.11-1.013-0.169
		c-0.354-0.06-0.71-0.121-1.062-0.19c-0.369-0.073-0.736-0.156-1.103-0.238c-0.313-0.07-0.625-0.139-0.936-0.216
		c-0.392-0.097-0.782-0.203-1.172-0.312c-0.28-0.078-0.56-0.156-0.837-0.239c-0.404-0.121-0.807-0.25-1.208-0.382
		c-0.264-0.087-0.527-0.175-0.789-0.268c-0.391-0.137-0.781-0.283-1.17-0.432C107.761,251.055,96.043,235.082,96.043,216.413z
		 M146.613,417.26c-1.606,0-3.237-0.041-4.844-0.122c-16.756-0.847-33.001-6.112-46.982-15.229
		c-2.229-1.452-3.757-3.685-4.306-6.286c-0.548-2.601-0.05-5.261,1.403-7.489c1.845-2.83,4.968-4.52,8.354-4.52
		c1.922,0,3.796,0.56,5.421,1.618c11.036,7.195,23.871,11.352,37.115,12.021c1.272,0.065,2.559,0.097,3.829,0.097
		c24.421,0,46.875-11.606,60.933-31.269h4.821c-0.021,0.111-0.037,0.225-0.056,0.336c-0.173,0.952-0.333,1.905-0.483,2.857
		c-0.005,0.038-0.013,0.076-0.018,0.113c-1.211,7.745-1.678,15.513-1.418,23.222C192.872,408.534,170.37,417.26,146.613,417.26z
		 M314.773,473.752c6.296,1.417,12.759,2.136,19.212,2.136c18.614,0,36.416-5.782,51.483-16.72c1.711-1.242,3.727-1.899,5.83-1.899
		c3.233,0,6.176,1.497,8.071,4.106c3.225,4.443,2.234,10.682-2.209,13.907c-18.488,13.422-40.336,20.516-63.179,20.515
		c-7.921,0-15.855-0.882-23.581-2.622c-27.955-6.294-51.81-23.136-67.172-47.424c-9.626-15.219-15.174-32.198-16.432-49.633
		c0.006-0.251,0.008-0.501-0.009-0.753c-0.648-9.84,0.069-19.682,2.101-29.282h20.381l-0.682,3.025
		C237.986,416.205,267.676,463.149,314.773,473.752z M419.661,374.922c-17.856,22.988-45.951,36.712-75.155,36.71
		c-7.226,0-14.454-0.834-21.483-2.477c-23.573-5.514-44.447-20.174-57.738-40.438l0.594-2.636h22.283
		c10.296,11.769,24.143,20.121,39.395,23.687c5.562,1.302,11.282,1.961,16.997,1.961c23.07-0.001,45.268-10.849,59.379-29.019
		c1.901-2.447,4.772-3.85,7.875-3.85c2.223,0,4.33,0.724,6.095,2.095C422.238,364.32,423.026,370.587,419.661,374.922z"/>
</g>
<g>
</g>
<g>
</g>
<g>
</g>
<g>
</g>
<g>
</g>
<g>
</g>
<g>
</g>
<g>
</g>
<g>
</g>
<g>
</g>
<g>
</g>
<g>
</g>
<g>
</g>
<g>
</g>
<g>
</g>
</svg>
